<?xml version="1.0" encoding="UTF-8" standalone="no"?>
<!DOCTYPE svg PUBLIC "-//W3C//DTD SVG 1.1//EN"
 "http://www.w3.org/Graphics/SVG/1.1/DTD/svg11.dtd">
<!-- Generated by graphviz version 2.36.0 (20140111.2315)
 -->
<!-- Title: controllers_diagram Pages: 1 -->
<svg width="612pt" height="582pt"
 viewBox="0.00 0.00 612.00 582.00" xmlns="http://www.w3.org/2000/svg" xmlns:xlink="http://www.w3.org/1999/xlink">
<g id="graph0" class="graph" transform="scale(1 1) rotate(0) translate(4 578)">
<title>controllers_diagram</title>
<polygon fill="none" stroke="none" points="-4,4 -4,-578 608,-578 608,4 -4,4"/>
<!-- _diagram_info -->
<g id="node1" class="node"><title>_diagram_info</title>
<text text-anchor="start" x="314" y="-63.6" font-family="Times,serif" font-size="13.00">Controllers diagram</text>
<text text-anchor="start" x="314" y="-49.6" font-family="Times,serif" font-size="13.00">Date: Dec 06 2017 &#45; 20:54</text>
<text text-anchor="start" x="314" y="-35.6" font-family="Times,serif" font-size="13.00">Migration version: 20171114214619</text>
<text text-anchor="start" x="314" y="-21.6" font-family="Times,serif" font-size="13.00">Generated by RailRoady 1.5.3</text>
<text text-anchor="start" x="314" y="-7.6" font-family="Times,serif" font-size="13.00">http://railroady.prestonlee.com</text>
</g>
<!-- UsersController -->
<g id="node2" class="node"><title>UsersController</title>
<path fill="none" stroke="black" d="M390,-360.5C390,-360.5 469,-360.5 469,-360.5 475,-360.5 481,-366.5 481,-372.5 481,-372.5 481,-561.5 481,-561.5 481,-567.5 475,-573.5 469,-573.5 469,-573.5 390,-573.5 390,-573.5 384,-573.5 378,-567.5 378,-561.5 378,-561.5 378,-372.5 378,-372.5 378,-366.5 384,-360.5 390,-360.5"/>
<text text-anchor="middle" x="429.5" y="-558.3" font-family="Times,serif" font-size="14.00">UsersController</text>
<polyline fill="none" stroke="black" points="378,-550.5 481,-550.5 "/>
<text text-anchor="start" x="386" y="-535.3" font-family="Times,serif" font-size="14.00">create</text>
<text text-anchor="start" x="386" y="-520.3" font-family="Times,serif" font-size="14.00">destroy</text>
<text text-anchor="start" x="386" y="-505.3" font-family="Times,serif" font-size="14.00">edit</text>
<text text-anchor="start" x="386" y="-490.3" font-family="Times,serif" font-size="14.00">index</text>
<text text-anchor="start" x="386" y="-475.3" font-family="Times,serif" font-size="14.00">new</text>
<text text-anchor="start" x="386" y="-460.3" font-family="Times,serif" font-size="14.00">show</text>
<text text-anchor="start" x="386" y="-445.3" font-family="Times,serif" font-size="14.00">update</text>
<polyline fill="none" stroke="black" points="378,-437.5 481,-437.5 "/>
<polyline fill="none" stroke="black" points="378,-413.5 481,-413.5 "/>
<text text-anchor="start" x="386" y="-398.3" font-family="Times,serif" font-size="14.00">_layout</text>
<text text-anchor="start" x="386" y="-383.3" font-family="Times,serif" font-size="14.00">set_user</text>
<text text-anchor="start" x="386" y="-368.3" font-family="Times,serif" font-size="14.00">user_params</text>
</g>
<!-- ServicesController -->
<g id="node3" class="node"><title>ServicesController</title>
<path fill="none" stroke="black" d="M318,-108.5C318,-108.5 412,-108.5 412,-108.5 418,-108.5 424,-114.5 424,-120.5 424,-120.5 424,-309.5 424,-309.5 424,-315.5 418,-321.5 412,-321.5 412,-321.5 318,-321.5 318,-321.5 312,-321.5 306,-315.5 306,-309.5 306,-309.5 306,-120.5 306,-120.5 306,-114.5 312,-108.5 318,-108.5"/>
<text text-anchor="middle" x="365" y="-306.3" font-family="Times,serif" font-size="14.00">ServicesController</text>
<polyline fill="none" stroke="black" points="306,-298.5 424,-298.5 "/>
<text text-anchor="start" x="314" y="-283.3" font-family="Times,serif" font-size="14.00">create</text>
<text text-anchor="start" x="314" y="-268.3" font-family="Times,serif" font-size="14.00">destroy</text>
<text text-anchor="start" x="314" y="-253.3" font-family="Times,serif" font-size="14.00">edit</text>
<text text-anchor="start" x="314" y="-238.3" font-family="Times,serif" font-size="14.00">index</text>
<text text-anchor="start" x="314" y="-223.3" font-family="Times,serif" font-size="14.00">new</text>
<text text-anchor="start" x="314" y="-208.3" font-family="Times,serif" font-size="14.00">show</text>
<text text-anchor="start" x="314" y="-193.3" font-family="Times,serif" font-size="14.00">update</text>
<polyline fill="none" stroke="black" points="306,-185.5 424,-185.5 "/>
<polyline fill="none" stroke="black" points="306,-161.5 424,-161.5 "/>
<text text-anchor="start" x="314" y="-146.3" font-family="Times,serif" font-size="14.00">_layout</text>
<text text-anchor="start" x="314" y="-131.3" font-family="Times,serif" font-size="14.00">service_params</text>
<text text-anchor="start" x="314" y="-116.3" font-family="Times,serif" font-size="14.00">set_service</text>
</g>
<!-- CustomersController -->
<g id="node4" class="node"><title>CustomersController</title>
<path fill="none" stroke="black" d="M156,-72.5C156,-72.5 263,-72.5 263,-72.5 269,-72.5 275,-78.5 275,-84.5 275,-84.5 275,-288.5 275,-288.5 275,-294.5 269,-300.5 263,-300.5 263,-300.5 156,-300.5 156,-300.5 150,-300.5 144,-294.5 144,-288.5 144,-288.5 144,-84.5 144,-84.5 144,-78.5 150,-72.5 156,-72.5"/>
<text text-anchor="middle" x="209.5" y="-285.3" font-family="Times,serif" font-size="14.00">CustomersController</text>
<polyline fill="none" stroke="black" points="144,-277.5 275,-277.5 "/>
<text text-anchor="start" x="152" y="-262.3" font-family="Times,serif" font-size="14.00">create</text>
<text text-anchor="start" x="152" y="-247.3" font-family="Times,serif" font-size="14.00">destroy</text>
<text text-anchor="start" x="152" y="-232.3" font-family="Times,serif" font-size="14.00">edit</text>
<text text-anchor="start" x="152" y="-217.3" font-family="Times,serif" font-size="14.00">index</text>
<text text-anchor="start" x="152" y="-202.3" font-family="Times,serif" font-size="14.00">new</text>
<text text-anchor="start" x="152" y="-187.3" font-family="Times,serif" font-size="14.00">setFilter</text>
<text text-anchor="start" x="152" y="-172.3" font-family="Times,serif" font-size="14.00">show</text>
<text text-anchor="start" x="152" y="-157.3" font-family="Times,serif" font-size="14.00">update</text>
<polyline fill="none" stroke="black" points="144,-149.5 275,-149.5 "/>
<polyline fill="none" stroke="black" points="144,-125.5 275,-125.5 "/>
<text text-anchor="start" x="152" y="-110.3" font-family="Times,serif" font-size="14.00">_layout</text>
<text text-anchor="start" x="152" y="-95.3" font-family="Times,serif" font-size="14.00">customer_params</text>
<text text-anchor="start" x="152" y="-80.3" font-family="Times,serif" font-size="14.00">set_customer</text>
</g>
<!-- IssuesController -->
<g id="node5" class="node"><title>IssuesController</title>
<path fill="none" stroke="black" d="M12,-198.5C12,-198.5 93,-198.5 93,-198.5 99,-198.5 105,-204.5 105,-210.5 105,-210.5 105,-399.5 105,-399.5 105,-405.5 99,-411.5 93,-411.5 93,-411.5 12,-411.5 12,-411.5 6,-411.5 0,-405.5 0,-399.5 0,-399.5 0,-210.5 0,-210.5 0,-204.5 6,-198.5 12,-198.5"/>
<text text-anchor="middle" x="52.5" y="-396.3" font-family="Times,serif" font-size="14.00">IssuesController</text>
<polyline fill="none" stroke="black" points="0,-388.5 105,-388.5 "/>
<text text-anchor="start" x="8" y="-373.3" font-family="Times,serif" font-size="14.00">create</text>
<text text-anchor="start" x="8" y="-358.3" font-family="Times,serif" font-size="14.00">destroy</text>
<text text-anchor="start" x="8" y="-343.3" font-family="Times,serif" font-size="14.00">edit</text>
<text text-anchor="start" x="8" y="-328.3" font-family="Times,serif" font-size="14.00">index</text>
<text text-anchor="start" x="8" y="-313.3" font-family="Times,serif" font-size="14.00">new</text>
<text text-anchor="start" x="8" y="-298.3" font-family="Times,serif" font-size="14.00">show</text>
<text text-anchor="start" x="8" y="-283.3" font-family="Times,serif" font-size="14.00">update</text>
<polyline fill="none" stroke="black" points="0,-275.5 105,-275.5 "/>
<polyline fill="none" stroke="black" points="0,-251.5 105,-251.5 "/>
<text text-anchor="start" x="8" y="-236.3" font-family="Times,serif" font-size="14.00">_layout</text>
<text text-anchor="start" x="8" y="-221.3" font-family="Times,serif" font-size="14.00">issue_params</text>
<text text-anchor="start" x="8" y="-206.3" font-family="Times,serif" font-size="14.00">set_issue</text>
</g>
<!-- InvoicesController -->
<g id="node6" class="node"><title>InvoicesController</title>
<path fill="none" stroke="black" d="M156,-342.5C156,-342.5 250,-342.5 250,-342.5 256,-342.5 262,-348.5 262,-354.5 262,-354.5 262,-543.5 262,-543.5 262,-549.5 256,-555.5 250,-555.5 250,-555.5 156,-555.5 156,-555.5 150,-555.5 144,-549.5 144,-543.5 144,-543.5 144,-354.5 144,-354.5 144,-348.5 150,-342.5 156,-342.5"/>
<text text-anchor="middle" x="203" y="-540.3" font-family="Times,serif" font-size="14.00">InvoicesController</text>
<polyline fill="none" stroke="black" points="144,-532.5 262,-532.5 "/>
<text text-anchor="start" x="152" y="-517.3" font-family="Times,serif" font-size="14.00">create</text>
<text text-anchor="start" x="152" y="-502.3" font-family="Times,serif" font-size="14.00">destroy</text>
<text text-anchor="start" x="152" y="-487.3" font-family="Times,serif" font-size="14.00">edit</text>
<text text-anchor="start" x="152" y="-472.3" font-family="Times,serif" font-size="14.00">index</text>
<text text-anchor="start" x="152" y="-457.3" font-family="Times,serif" font-size="14.00">new</text>
<text text-anchor="start" x="152" y="-442.3" font-family="Times,serif" font-size="14.00">show</text>
<text text-anchor="start" x="152" y="-427.3" font-family="Times,serif" font-size="14.00">update</text>
<polyline fill="none" stroke="black" points="144,-419.5 262,-419.5 "/>
<polyline fill="none" stroke="black" points="144,-395.5 262,-395.5 "/>
<text text-anchor="start" x="152" y="-380.3" font-family="Times,serif" font-size="14.00">_layout</text>
<text text-anchor="start" x="152" y="-365.3" font-family="Times,serif" font-size="14.00">invoice_params</text>
<text text-anchor="start" x="152" y="-350.3" font-family="Times,serif" font-size="14.00">set_invoice</text>
</g>
<!-- ApplicationController -->
<g id="node7" class="node"><title>ApplicationController</title>
<path fill="none" stroke="black" d="M480,-108.5C480,-108.5 592,-108.5 592,-108.5 598,-108.5 604,-114.5 604,-120.5 604,-120.5 604,-190.5 604,-190.5 604,-196.5 598,-202.5 592,-202.5 592,-202.5 480,-202.5 480,-202.5 474,-202.5 468,-196.5 468,-190.5 468,-190.5 468,-120.5 468,-120.5 468,-114.5 474,-108.5 480,-108.5"/>
<text text-anchor="middle" x="536" y="-187.3" font-family="Times,serif" font-size="14.00">ApplicationController</text>
<polyline fill="none" stroke="black" points="468,-179.5 604,-179.5 "/>
<polyline fill="none" stroke="black" points="468,-155.5 604,-155.5 "/>
<polyline fill="none" stroke="black" points="468,-131.5 604,-131.5 "/>
<text text-anchor="start" x="476" y="-116.3" font-family="Times,serif" font-size="14.00">_layout</text>
</g>
</g>
</svg>
