<?xml version="1.0" encoding="UTF-8" standalone="no"?>
<!DOCTYPE svg PUBLIC "-//W3C//DTD SVG 1.1//EN"
 "http://www.w3.org/Graphics/SVG/1.1/DTD/svg11.dtd">
<!-- Generated by graphviz version 2.36.0 (20140111.2315)
 -->
<!-- Title: models_diagram Pages: 1 -->
<svg width="544pt" height="710pt"
 viewBox="0.00 0.00 544.00 710.00" xmlns="http://www.w3.org/2000/svg" xmlns:xlink="http://www.w3.org/1999/xlink">
<g id="graph0" class="graph" transform="scale(1 1) rotate(0) translate(4 706)">
<title>models_diagram</title>
<polygon fill="none" stroke="none" points="-4,4 -4,-706 540,-706 540,4 -4,4"/>
<!-- _diagram_info -->
<g id="node1" class="node"><title>_diagram_info</title>
<text text-anchor="start" x="8" y="-620.6" font-family="Times,serif" font-size="13.00">Models diagram</text>
<text text-anchor="start" x="8" y="-606.6" font-family="Times,serif" font-size="13.00">Date: Dec 06 2017 &#45; 20:54</text>
<text text-anchor="start" x="8" y="-592.6" font-family="Times,serif" font-size="13.00">Migration version: 20171114214619</text>
<text text-anchor="start" x="8" y="-578.6" font-family="Times,serif" font-size="13.00">Generated by RailRoady 1.5.3</text>
<text text-anchor="start" x="8" y="-564.6" font-family="Times,serif" font-size="13.00">http://railroady.prestonlee.com</text>
</g>
<!-- Customer -->
<g id="node2" class="node"><title>Customer</title>
<path fill="none" stroke="black" d="M244.5,-490.5C244.5,-490.5 351.5,-490.5 351.5,-490.5 357.5,-490.5 363.5,-496.5 363.5,-502.5 363.5,-502.5 363.5,-689.5 363.5,-689.5 363.5,-695.5 357.5,-701.5 351.5,-701.5 351.5,-701.5 244.5,-701.5 244.5,-701.5 238.5,-701.5 232.5,-695.5 232.5,-689.5 232.5,-689.5 232.5,-502.5 232.5,-502.5 232.5,-496.5 238.5,-490.5 244.5,-490.5"/>
<text text-anchor="middle" x="298" y="-686.3" font-family="Times,serif" font-size="14.00">Customer</text>
<polyline fill="none" stroke="black" points="232.5,-678.5 363.5,-678.5 "/>
<text text-anchor="start" x="240.5" y="-663.3" font-family="Times,serif" font-size="14.00">id :INTEGER</text>
<text text-anchor="start" x="240.5" y="-648.3" font-family="Times,serif" font-size="14.00">cf :varchar</text>
<text text-anchor="start" x="240.5" y="-633.3" font-family="Times,serif" font-size="14.00">name :varchar</text>
<text text-anchor="start" x="240.5" y="-618.3" font-family="Times,serif" font-size="14.00">surname :varchar</text>
<text text-anchor="start" x="240.5" y="-603.3" font-family="Times,serif" font-size="14.00">phone :varchar</text>
<text text-anchor="start" x="240.5" y="-588.3" font-family="Times,serif" font-size="14.00">email :varchar</text>
<text text-anchor="start" x="240.5" y="-573.3" font-family="Times,serif" font-size="14.00">address :varchar</text>
<text text-anchor="start" x="240.5" y="-558.3" font-family="Times,serif" font-size="14.00">postcode :decimal</text>
<text text-anchor="start" x="240.5" y="-543.3" font-family="Times,serif" font-size="14.00">city :varchar</text>
<text text-anchor="start" x="240.5" y="-528.3" font-family="Times,serif" font-size="14.00">prov :varchar</text>
<text text-anchor="start" x="240.5" y="-513.3" font-family="Times,serif" font-size="14.00">created_at :datetime</text>
<text text-anchor="start" x="240.5" y="-498.3" font-family="Times,serif" font-size="14.00">updated_at :datetime</text>
</g>
<!-- User -->
<g id="node3" class="node"><title>User</title>
<path fill="none" stroke="black" d="M196.5,-347C196.5,-347 303.5,-347 303.5,-347 309.5,-347 315.5,-353 315.5,-359 315.5,-359 315.5,-441 315.5,-441 315.5,-447 309.5,-453 303.5,-453 303.5,-453 196.5,-453 196.5,-453 190.5,-453 184.5,-447 184.5,-441 184.5,-441 184.5,-359 184.5,-359 184.5,-353 190.5,-347 196.5,-347"/>
<text text-anchor="middle" x="250" y="-437.8" font-family="Times,serif" font-size="14.00">User</text>
<polyline fill="none" stroke="black" points="184.5,-430 315.5,-430 "/>
<text text-anchor="start" x="192.5" y="-414.8" font-family="Times,serif" font-size="14.00">id :INTEGER</text>
<text text-anchor="start" x="192.5" y="-399.8" font-family="Times,serif" font-size="14.00">name :varchar</text>
<text text-anchor="start" x="192.5" y="-384.8" font-family="Times,serif" font-size="14.00">role :varchar</text>
<text text-anchor="start" x="192.5" y="-369.8" font-family="Times,serif" font-size="14.00">created_at :datetime</text>
<text text-anchor="start" x="192.5" y="-354.8" font-family="Times,serif" font-size="14.00">updated_at :datetime</text>
</g>
<!-- Customer&#45;&gt;User -->
<g id="edge4" class="edge"><title>Customer&#45;&gt;User</title>
<path fill="none" stroke="#a956d6" d="M269.65,-480.42C268.189,-474.515 266.75,-468.699 265.356,-463.065"/>
<polygon fill="#a956d6" stroke="#a956d6" points="269.701,-480.627 267.735,-491.415 270.902,-485.481 272.103,-490.334 272.103,-490.334 272.103,-490.334 270.902,-485.481 276.472,-489.253 269.701,-480.627 269.701,-480.627"/>
<polygon fill="#a956d6" stroke="#a956d6" points="265.302,-462.847 267.269,-452.059 264.102,-457.994 262.901,-453.14 262.901,-453.14 262.901,-453.14 264.102,-457.994 258.532,-454.221 265.302,-462.847 265.302,-462.847"/>
</g>
<!-- Issue -->
<g id="node4" class="node"><title>Issue</title>
<path fill="none" stroke="black" d="M99.5,-181C99.5,-181 206.5,-181 206.5,-181 212.5,-181 218.5,-187 218.5,-193 218.5,-193 218.5,-275 218.5,-275 218.5,-281 212.5,-287 206.5,-287 206.5,-287 99.5,-287 99.5,-287 93.5,-287 87.5,-281 87.5,-275 87.5,-275 87.5,-193 87.5,-193 87.5,-187 93.5,-181 99.5,-181"/>
<text text-anchor="middle" x="153" y="-271.8" font-family="Times,serif" font-size="14.00">Issue</text>
<polyline fill="none" stroke="black" points="87.5,-264 218.5,-264 "/>
<text text-anchor="start" x="95.5" y="-248.8" font-family="Times,serif" font-size="14.00">id :INTEGER</text>
<text text-anchor="start" x="95.5" y="-233.8" font-family="Times,serif" font-size="14.00">cf :varchar</text>
<text text-anchor="start" x="95.5" y="-218.8" font-family="Times,serif" font-size="14.00">description :text</text>
<text text-anchor="start" x="95.5" y="-203.8" font-family="Times,serif" font-size="14.00">created_at :datetime</text>
<text text-anchor="start" x="95.5" y="-188.8" font-family="Times,serif" font-size="14.00">updated_at :datetime</text>
</g>
<!-- Customer&#45;&gt;Issue -->
<g id="edge3" class="edge"><title>Customer&#45;&gt;Issue</title>
<path fill="none" stroke="#9bd79d" d="M226.942,-495.211C225.303,-493.44 223.655,-491.701 222,-490 203.648,-471.144 187.814,-476.981 175,-454 148.357,-406.217 144.634,-343.382 146.528,-297.277"/>
<ellipse fill="none" stroke="#9bd79d" cx="229.794" cy="-498.375" rx="4.00002" ry="4.00002"/>
<polygon fill="#9bd79d" stroke="#9bd79d" points="146.536,-297.104 151.54,-287.347 146.791,-292.111 147.046,-287.117 147.046,-287.117 147.046,-287.117 146.791,-292.111 142.552,-286.888 146.536,-297.104 146.536,-297.104"/>
</g>
<!-- Service -->
<g id="node5" class="node"><title>Service</title>
<path fill="none" stroke="black" d="M297.5,-0.5C297.5,-0.5 404.5,-0.5 404.5,-0.5 410.5,-0.5 416.5,-6.5 416.5,-12.5 416.5,-12.5 416.5,-109.5 416.5,-109.5 416.5,-115.5 410.5,-121.5 404.5,-121.5 404.5,-121.5 297.5,-121.5 297.5,-121.5 291.5,-121.5 285.5,-115.5 285.5,-109.5 285.5,-109.5 285.5,-12.5 285.5,-12.5 285.5,-6.5 291.5,-0.5 297.5,-0.5"/>
<text text-anchor="middle" x="351" y="-106.3" font-family="Times,serif" font-size="14.00">Service</text>
<polyline fill="none" stroke="black" points="285.5,-98.5 416.5,-98.5 "/>
<text text-anchor="start" x="293.5" y="-83.3" font-family="Times,serif" font-size="14.00">id :INTEGER</text>
<text text-anchor="start" x="293.5" y="-68.3" font-family="Times,serif" font-size="14.00">duration :decimal</text>
<text text-anchor="start" x="293.5" y="-53.3" font-family="Times,serif" font-size="14.00">cf :varchar</text>
<text text-anchor="start" x="293.5" y="-38.3" font-family="Times,serif" font-size="14.00">rate :decimal</text>
<text text-anchor="start" x="293.5" y="-23.3" font-family="Times,serif" font-size="14.00">created_at :datetime</text>
<text text-anchor="start" x="293.5" y="-8.3" font-family="Times,serif" font-size="14.00">updated_at :datetime</text>
</g>
<!-- Customer&#45;&gt;Service -->
<g id="edge1" class="edge"><title>Customer&#45;&gt;Service</title>
<path fill="none" stroke="#c0bc44" d="M366.642,-483.187C393.989,-432.311 422.208,-370.132 436,-310 451.103,-244.154 459.947,-221.169 436,-158 432.293,-148.22 427.083,-138.796 421.047,-129.927"/>
<ellipse fill="none" stroke="#c0bc44" cx="364.697" cy="-486.774" rx="4.00002" ry="4.00002"/>
<polygon fill="#c0bc44" stroke="#c0bc44" points="420.887,-129.706 418.676,-118.965 417.958,-125.653 415.029,-121.601 415.029,-121.601 415.029,-121.601 417.958,-125.653 411.382,-124.237 420.887,-129.706 420.887,-129.706"/>
</g>
<!-- Invoice -->
<g id="node7" class="node"><title>Invoice</title>
<path fill="none" stroke="black" d="M287,-158.5C287,-158.5 415,-158.5 415,-158.5 421,-158.5 427,-164.5 427,-170.5 427,-170.5 427,-297.5 427,-297.5 427,-303.5 421,-309.5 415,-309.5 415,-309.5 287,-309.5 287,-309.5 281,-309.5 275,-303.5 275,-297.5 275,-297.5 275,-170.5 275,-170.5 275,-164.5 281,-158.5 287,-158.5"/>
<text text-anchor="middle" x="351" y="-294.3" font-family="Times,serif" font-size="14.00">Invoice</text>
<polyline fill="none" stroke="black" points="275,-286.5 427,-286.5 "/>
<text text-anchor="start" x="283" y="-271.3" font-family="Times,serif" font-size="14.00">id :INTEGER</text>
<text text-anchor="start" x="283" y="-256.3" font-family="Times,serif" font-size="14.00">cf :varchar</text>
<text text-anchor="start" x="283" y="-241.3" font-family="Times,serif" font-size="14.00">invoiceNumber :decimal</text>
<text text-anchor="start" x="283" y="-226.3" font-family="Times,serif" font-size="14.00">totDuration :decimal</text>
<text text-anchor="start" x="283" y="-211.3" font-family="Times,serif" font-size="14.00">payDate :date</text>
<text text-anchor="start" x="283" y="-196.3" font-family="Times,serif" font-size="14.00">totalDue :decimal</text>
<text text-anchor="start" x="283" y="-181.3" font-family="Times,serif" font-size="14.00">created_at :datetime</text>
<text text-anchor="start" x="283" y="-166.3" font-family="Times,serif" font-size="14.00">updated_at :datetime</text>
</g>
<!-- Customer&#45;&gt;Invoice -->
<g id="edge2" class="edge"><title>Customer&#45;&gt;Invoice</title>
<path fill="none" stroke="#2e13ca" d="M319.391,-482.354C321.021,-472.775 322.582,-463.226 324,-454 330.787,-409.844 336.993,-360.472 341.74,-319.799"/>
<ellipse fill="none" stroke="#2e13ca" cx="318.684" cy="-486.458" rx="4.00001" ry="4.00001"/>
<polygon fill="#2e13ca" stroke="#2e13ca" points="341.764,-319.588 347.385,-310.172 342.339,-314.621 342.914,-309.654 342.914,-309.654 342.914,-309.654 342.339,-314.621 338.444,-309.137 341.764,-319.588 341.764,-319.588"/>
</g>
<!-- User&#45;&gt;Issue -->
<g id="edge7" class="edge"><title>User&#45;&gt;Issue</title>
<path fill="none" stroke="#5520b1" d="M214.759,-339.417C206.372,-325.237 197.413,-310.09 188.993,-295.854"/>
<ellipse fill="none" stroke="#5520b1" cx="217.006" cy="-343.216" rx="4.00002" ry="4.00002"/>
<polygon fill="#5520b1" stroke="#5520b1" points="188.921,-295.733 187.704,-284.835 186.376,-291.429 183.83,-287.126 183.83,-287.126 183.83,-287.126 186.376,-291.429 179.957,-289.417 188.921,-295.733 188.921,-295.733"/>
</g>
<!-- User&#45;&gt;Service -->
<g id="edge6" class="edge"><title>User&#45;&gt;Service</title>
<path fill="none" stroke="#dea527" d="M243.474,-338.78C240.445,-288.486 241.821,-215.915 266,-158 270.104,-148.17 275.643,-138.661 281.939,-129.696"/>
<ellipse fill="none" stroke="#dea527" cx="243.752" cy="-342.975" rx="4" ry="4"/>
<polygon fill="#dea527" stroke="#dea527" points="281.964,-129.661 291.53,-124.299 284.939,-125.641 287.913,-121.622 287.913,-121.622 287.913,-121.622 284.939,-125.641 284.295,-118.945 281.964,-129.661 281.964,-129.661"/>
</g>
<!-- User&#45;&gt;Invoice -->
<g id="edge5" class="edge"><title>User&#45;&gt;Invoice</title>
<path fill="none" stroke="#e8530d" d="M286.558,-339.638C290.881,-332.618 295.352,-325.358 299.83,-318.087"/>
<ellipse fill="none" stroke="#e8530d" cx="284.332" cy="-343.253" rx="4.00002" ry="4.00002"/>
<polygon fill="#e8530d" stroke="#e8530d" points="299.838,-318.075 308.914,-311.92 302.46,-313.817 305.082,-309.56 305.082,-309.56 305.082,-309.56 302.46,-313.817 301.25,-307.2 299.838,-318.075 299.838,-318.075"/>
</g>
<!-- ApplicationRecord -->
<g id="node6" class="node"><title>ApplicationRecord</title>
<ellipse fill="none" stroke="black" cx="459" cy="-596" rx="77.0154" ry="18"/>
<text text-anchor="middle" x="459" y="-592.3" font-family="Times,serif" font-size="14.00">ApplicationRecord</text>
</g>
<!-- Invoice&#45;&gt;Service -->
<g id="edge8" class="edge"><title>Invoice&#45;&gt;Service</title>
<path fill="none" stroke="#0e171d" d="M351,-150.369C351,-144.155 351,-137.921 351,-131.798"/>
<ellipse fill="none" stroke="#0e171d" cx="351" cy="-154.494" rx="4" ry="4"/>
<polygon fill="#0e171d" stroke="#0e171d" points="351,-131.622 355.5,-121.622 351,-126.622 351,-121.622 351,-121.622 351,-121.622 351,-126.622 346.5,-121.622 351,-131.622 351,-131.622"/>
</g>
</g>
</svg>
