<?xml version="1.0" encoding="UTF-8" standalone="no"?>
<!DOCTYPE svg PUBLIC "-//W3C//DTD SVG 1.1//EN"
 "http://www.w3.org/Graphics/SVG/1.1/DTD/svg11.dtd">
<!-- Generated by graphviz version 2.36.0 (20140111.2315)
 -->
<!-- Title: models_diagram Pages: 1 -->
<svg width="503pt" height="302pt"
 viewBox="0.00 0.00 503.00 302.00" xmlns="http://www.w3.org/2000/svg" xmlns:xlink="http://www.w3.org/1999/xlink">
<g id="graph0" class="graph" transform="scale(1 1) rotate(0) translate(4 298)">
<title>models_diagram</title>
<polygon fill="none" stroke="none" points="-4,4 -4,-298 499,-298 499,4 -4,4"/>
<!-- _diagram_info -->
<g id="node1" class="node"><title>_diagram_info</title>
<text text-anchor="start" x="8" y="-279.6" font-family="Times,serif" font-size="13.00">Models diagram</text>
<text text-anchor="start" x="8" y="-265.6" font-family="Times,serif" font-size="13.00">Date: Dec 06 2017 &#45; 20:54</text>
<text text-anchor="start" x="8" y="-251.6" font-family="Times,serif" font-size="13.00">Migration version: 20171114214619</text>
<text text-anchor="start" x="8" y="-237.6" font-family="Times,serif" font-size="13.00">Generated by RailRoady 1.5.3</text>
<text text-anchor="start" x="8" y="-223.6" font-family="Times,serif" font-size="13.00">http://railroady.prestonlee.com</text>
</g>
<!-- Customer -->
<g id="node2" class="node"><title>Customer</title>
<ellipse fill="none" stroke="black" cx="277" cy="-255" rx="45.244" ry="18"/>
<text text-anchor="middle" x="277" y="-251.3" font-family="Times,serif" font-size="14.00">Customer</text>
</g>
<!-- User -->
<g id="node3" class="node"><title>User</title>
<ellipse fill="none" stroke="black" cx="248" cy="-162" rx="26.949" ry="18"/>
<text text-anchor="middle" x="248" y="-158.3" font-family="Times,serif" font-size="14.00">User</text>
</g>
<!-- Customer&#45;&gt;User -->
<g id="edge4" class="edge"><title>Customer&#45;&gt;User</title>
<path fill="none" stroke="#ee48ed" d="M268.371,-226.922C264.595,-215.073 260.18,-201.218 256.427,-189.443"/>
<polygon fill="#ee48ed" stroke="#ee48ed" points="268.509,-227.356 267.258,-238.25 270.027,-232.12 271.545,-236.884 271.545,-236.884 271.545,-236.884 270.027,-232.12 275.833,-235.517 268.509,-227.356 268.509,-227.356"/>
<polygon fill="#ee48ed" stroke="#ee48ed" points="256.369,-189.26 257.62,-178.366 254.85,-184.496 253.332,-179.732 253.332,-179.732 253.332,-179.732 254.85,-184.496 249.045,-181.099 256.369,-189.26 256.369,-189.26"/>
</g>
<!-- Issue -->
<g id="node4" class="node"><title>Issue</title>
<ellipse fill="none" stroke="black" cx="189" cy="-90" rx="28.3955" ry="18"/>
<text text-anchor="middle" x="189" y="-86.3" font-family="Times,serif" font-size="14.00">Issue</text>
</g>
<!-- Customer&#45;&gt;Issue -->
<g id="edge3" class="edge"><title>Customer&#45;&gt;Issue</title>
<path fill="none" stroke="#9dbadf" d="M253.495,-232.814C239.543,-219.036 222.569,-199.968 212,-180 201.765,-160.663 195.896,-136.513 192.652,-118.25"/>
<ellipse fill="none" stroke="#9dbadf" cx="256.384" cy="-235.604" rx="4.00002" ry="4.00002"/>
<polygon fill="#9dbadf" stroke="#9dbadf" points="192.633,-118.13 195.474,-107.539 191.833,-113.195 191.032,-108.259 191.032,-108.259 191.032,-108.259 191.833,-113.195 186.59,-108.979 192.633,-118.13 192.633,-118.13"/>
</g>
<!-- Service -->
<g id="node5" class="node"><title>Service</title>
<ellipse fill="none" stroke="black" cx="311" cy="-18" rx="37.0701" ry="18"/>
<text text-anchor="middle" x="311" y="-14.3" font-family="Times,serif" font-size="14.00">Service</text>
</g>
<!-- Customer&#45;&gt;Service -->
<g id="edge1" class="edge"><title>Customer&#45;&gt;Service</title>
<path fill="none" stroke="#ccbcf4" d="M294.345,-231.125C314.01,-203.62 344.907,-155.237 357,-108 360.968,-92.4999 362.597,-86.9889 357,-72 352.714,-60.5238 344.699,-49.8865 336.545,-41.1995"/>
<ellipse fill="none" stroke="#ccbcf4" cx="291.955" cy="-234.418" rx="4.00002" ry="4.00002"/>
<polygon fill="#ccbcf4" stroke="#ccbcf4" points="336.509,-41.1631 332.614,-30.9119 332.971,-37.6293 329.434,-34.0955 329.434,-34.0955 329.434,-34.0955 332.971,-37.6293 326.254,-37.2791 336.509,-41.1631 336.509,-41.1631"/>
</g>
<!-- Invoice -->
<g id="node7" class="node"><title>Invoice</title>
<ellipse fill="none" stroke="black" cx="311" cy="-90" rx="37.0701" ry="18"/>
<text text-anchor="middle" x="311" y="-86.3" font-family="Times,serif" font-size="14.00">Invoice</text>
</g>
<!-- Customer&#45;&gt;Invoice -->
<g id="edge2" class="edge"><title>Customer&#45;&gt;Invoice</title>
<path fill="none" stroke="#1dedd6" d="M282.226,-228.945C288.455,-199.085 298.827,-149.36 305.269,-118.473"/>
<ellipse fill="none" stroke="#1dedd6" cx="281.391" cy="-232.948" rx="4.00001" ry="4.00001"/>
<polygon fill="#1dedd6" stroke="#1dedd6" points="305.329,-118.186 311.776,-109.316 306.35,-113.291 307.371,-108.397 307.371,-108.397 307.371,-108.397 306.35,-113.291 302.966,-107.478 305.329,-118.186 305.329,-118.186"/>
</g>
<!-- User&#45;&gt;Issue -->
<g id="edge7" class="edge"><title>User&#45;&gt;Issue</title>
<path fill="none" stroke="#ae417e" d="M229.802,-139.409C222.994,-131.332 215.241,-122.134 208.335,-113.94"/>
<ellipse fill="none" stroke="#ae417e" cx="232.62" cy="-142.753" rx="4.00002" ry="4.00002"/>
<polygon fill="#ae417e" stroke="#ae417e" points="208.222,-113.806 205.218,-103.259 205,-109.982 201.777,-106.159 201.777,-106.159 201.777,-106.159 205,-109.982 198.336,-109.059 208.222,-113.806 208.222,-113.806"/>
</g>
<!-- User&#45;&gt;Service -->
<g id="edge6" class="edge"><title>User&#45;&gt;Service</title>
<path fill="none" stroke="#96d18a" d="M249.325,-135.563C251.109,-117.132 255.277,-92.0369 265,-72 270.43,-60.8091 278.845,-50.1148 287.001,-41.3008"/>
<ellipse fill="none" stroke="#96d18a" cx="248.975" cy="-139.785" rx="4" ry="4"/>
<polygon fill="#96d18a" stroke="#96d18a" points="287.053,-41.2477 297.248,-37.2092 290.536,-37.6609 294.02,-34.0741 294.02,-34.0741 294.02,-34.0741 290.536,-37.6609 290.791,-30.9389 287.053,-41.2477 287.053,-41.2477"/>
</g>
<!-- User&#45;&gt;Invoice -->
<g id="edge5" class="edge"><title>User&#45;&gt;Invoice</title>
<path fill="none" stroke="#4d180d" d="M266.769,-140.145C274.058,-132.046 282.441,-122.732 289.935,-114.406"/>
<ellipse fill="none" stroke="#4d180d" cx="264.037" cy="-143.182" rx="4.00002" ry="4.00002"/>
<polygon fill="#4d180d" stroke="#4d180d" points="290.093,-114.23 300.128,-109.807 293.438,-110.513 296.783,-106.797 296.783,-106.797 296.783,-106.797 293.438,-110.513 293.438,-103.786 290.093,-114.23 290.093,-114.23"/>
</g>
<!-- ApplicationRecord -->
<g id="node6" class="node"><title>ApplicationRecord</title>
<ellipse fill="none" stroke="black" cx="418" cy="-255" rx="77.0154" ry="18"/>
<text text-anchor="middle" x="418" y="-251.3" font-family="Times,serif" font-size="14.00">ApplicationRecord</text>
</g>
<!-- Invoice&#45;&gt;Service -->
<g id="edge8" class="edge"><title>Invoice&#45;&gt;Service</title>
<path fill="none" stroke="#479164" d="M311,-63.6398C311,-58.0629 311,-52.1319 311,-46.4761"/>
<ellipse fill="none" stroke="#479164" cx="311" cy="-67.6966" rx="4" ry="4"/>
<polygon fill="#479164" stroke="#479164" points="311,-46.1043 315.5,-36.1043 311,-41.1043 311,-36.1043 311,-36.1043 311,-36.1043 311,-41.1043 306.5,-36.1044 311,-46.1043 311,-46.1043"/>
</g>
</g>
</svg>
